<svg xmlns="http://www.w3.org/2000/svg" viewBox="0 0 713.45 667.53">
  <title>tree</title>
  <g id="Layer_2" data-name="Layer 2">
    <g id="Web">
      <g id="tree">
        <g>
          <line x1="250.86" y1="445.64" x2="250.86" y2="541.92" fill="none" stroke="#939598" stroke-miterlimit="10"/>
          <line x1="323.49" y1="21.88" x2="323.49" y2="70.01" fill="none" stroke="#939598" stroke-miterlimit="10"/>
          <g>
            <line x1="39.72" y1="70.01" x2="39.72" y2="118.15" fill="none" stroke="#939598" stroke-miterlimit="10"/>
            <line x1="181.61" y1="70.01" x2="181.61" y2="118.15" fill="none" stroke="#939598" stroke-miterlimit="10"/>
            <line x1="323.49" y1="70.01" x2="323.49" y2="118.15" fill="none" stroke="#939598" stroke-miterlimit="10"/>
            <line x1="465.38" y1="70.01" x2="465.38" y2="118.15" fill="none" stroke="#939598" stroke-miterlimit="10"/>
            <line x1="607.26" y1="70.01" x2="607.26" y2="118.15" fill="none" stroke="#939598" stroke-miterlimit="10"/>
          </g>
          <line x1="39.72" y1="70.01" x2="607.26" y2="70.01" fill="none" stroke="#939598" stroke-miterlimit="10"/>
          <line x1="323.49" y1="129.18" x2="323.49" y2="224.78" fill="none" stroke="#939598" stroke-miterlimit="10"/>
          <line x1="106.09" y1="340.16" x2="106.09" y2="435.76" fill="none" stroke="#939598" stroke-miterlimit="10"/>
          <line x1="106.09" y1="445.64" x2="106.09" y2="541.25" fill="none" stroke="#939598" stroke-miterlimit="10"/>
          <line x1="323.49" y1="232.99" x2="323.49" y2="281.13" fill="none" stroke="#939598" stroke-miterlimit="10"/>
          <g>
            <line x1="106.09" y1="281.13" x2="106.09" y2="329.26" fill="none" stroke="#939598" stroke-miterlimit="10"/>
            <line x1="374.14" y1="281.13" x2="374.14" y2="329.26" fill="none" stroke="#939598" stroke-miterlimit="10"/>
            <line x1="106.09" y1="281.13" x2="374.14" y2="281.13" fill="none" stroke="#939598" stroke-miterlimit="10"/>
          </g>
          <line x1="374.14" y1="340.16" x2="374.14" y2="388.29" fill="none" stroke="#939598" stroke-miterlimit="10"/>
          <g>
            <line x1="250.7" y1="388.29" x2="250.7" y2="436.43" fill="none" stroke="#939598" stroke-miterlimit="10"/>
            <line x1="536.92" y1="388.29" x2="536.92" y2="436.43" fill="none" stroke="#939598" stroke-miterlimit="10"/>
            <line x1="250.7" y1="388.29" x2="536.92" y2="388.29" fill="none" stroke="#939598" stroke-miterlimit="10"/>
          </g>
          <line x1="536.92" y1="445.64" x2="536.92" y2="493.78" fill="none" stroke="#939598" stroke-miterlimit="10"/>
          <g>
            <line x1="440.1" y1="493.78" x2="440.1" y2="541.92" fill="none" stroke="#939598" stroke-miterlimit="10"/>
            <line x1="536.92" y1="493.78" x2="536.92" y2="541.92" fill="none" stroke="#939598" stroke-miterlimit="10"/>
            <line x1="440.1" y1="493.78" x2="536.92" y2="493.78" fill="none" stroke="#939598" stroke-miterlimit="10"/>
          </g>
          <g>
            <line x1="633.73" y1="493.78" x2="633.73" y2="541.92" fill="none" stroke="#939598" stroke-miterlimit="10"/>
            <line x1="536.92" y1="493.78" x2="633.73" y2="493.78" fill="none" stroke="#939598" stroke-miterlimit="10"/>
          </g>
          <g>
            <text transform="translate(281.58 129.18)" font-size="19.36" fill="#fff" font-family="MyriadPro-Regular, Myriad Pro">docume<tspan x="66.74" y="0" letter-spacing="0em">n</tspan><tspan x="77.41" y="0">t</tspan></text>
            <rect x="273.08" y="107.3" width="100.83" height="32.39" rx="5.67" ry="5.67" fill="#e89ec5"/>
            <text transform="translate(281.58 129.18)" font-size="19.36" fill="#fff" font-family="MyriadPro-Regular, Myriad Pro">docume<tspan x="66.74" y="0" letter-spacing="0em">n</tspan><tspan x="77.41" y="0">t</tspan></text>
          </g>
          <g>
            <text transform="translate(437.31 129.18)" font-size="19.36" fill="#fff" font-family="MyriadPro-Regular, Myriad Pro">his<tspan x="22.95" y="0" letter-spacing="-0.01em">t</tspan><tspan x="29.24" y="0">o</tspan><tspan x="39.87" y="0" letter-spacing="0.02em">r</tspan><tspan x="46.68" y="0">y</tspan></text>
            <rect x="428.81" y="107.3" width="72.81" height="32.39" rx="5.67" ry="5.67" fill="#e89ec5"/>
            <text transform="translate(437.31 129.18)" font-size="19.36" fill="#fff" font-family="MyriadPro-Regular, Myriad Pro">his<tspan x="22.95" y="0" letter-spacing="-0.01em">t</tspan><tspan x="29.24" y="0">o</tspan><tspan x="39.87" y="0" letter-spacing="0.02em">r</tspan><tspan x="46.68" y="0">y</tspan></text>
          </g>
          <g>
            <text transform="translate(569.64 129.18)" font-size="19.36" fill="#fff" font-family="MyriadPro-Regular, Myriad Pro">loc<tspan x="23.87" y="0" letter-spacing="0em">a</tspan><tspan x="33.13" y="0">tion</tspan></text>
            <rect x="561.14" y="107.3" width="82.45" height="32.39" rx="5.67" ry="5.67" fill="#e89ec5"/>
            <text transform="translate(569.64 129.18)" font-size="19.36" fill="#fff" font-family="MyriadPro-Regular, Myriad Pro">loc<tspan x="23.87" y="0" letter-spacing="0em">a</tspan><tspan x="33.13" y="0">tion</tspan></text>
          </g>
          <g>
            <text transform="translate(134.07 129.18)" font-size="19.36" fill="#fff" font-family="MyriadPro-Regular, Myriad Pro">n<tspan x="10.75" y="0" letter-spacing="-0.01em">a</tspan><tspan x="19.92" y="0">vig</tspan><tspan x="44.59" y="0" letter-spacing="0em">a</tspan><tspan x="53.85" y="0" letter-spacing="-0.01em">t</tspan><tspan x="60.14" y="0" letter-spacing="0em">or</tspan></text>
            <rect x="125.57" y="107.3" width="94.11" height="32.39" rx="5.67" ry="5.67" fill="#e89ec5"/>
            <text transform="translate(134.07 129.18)" font-size="19.36" fill="#fff" font-family="MyriadPro-Regular, Myriad Pro">n<tspan x="10.75" y="0" letter-spacing="-0.01em">a</tspan><tspan x="19.92" y="0">vig</tspan><tspan x="44.59" y="0" letter-spacing="0em">a</tspan><tspan x="53.85" y="0" letter-spacing="-0.01em">t</tspan><tspan x="60.14" y="0" letter-spacing="0em">or</tspan></text>
          </g>
          <g>
            <text transform="translate(8.5 129.18)" font-size="19.36" fill="#fff" font-family="MyriadPro-Regular, Myriad Pro">sc<tspan x="16.34" y="0" letter-spacing="-0.01em">r</tspan><tspan x="22.48" y="0">een</tspan></text>
            <rect y="107.3" width="69.64" height="32.39" rx="5.67" ry="5.67" fill="#e89ec5"/>
            <text transform="translate(8.5 129.18)" font-size="19.36" fill="#fff" font-family="MyriadPro-Regular, Myriad Pro">sc<tspan x="16.34" y="0" letter-spacing="-0.01em">r</tspan><tspan x="22.48" y="0">een</tspan></text>
          </g>
          <g>
            <text transform="translate(290.89 21.88)" font-size="19.36" fill="#fff" font-family="MyriadPro-Regular, Myriad Pro">wind<tspan x="40.45" y="0" letter-spacing="-0.01em">o</tspan><tspan x="50.94" y="0" letter-spacing="0em">w</tspan></text>
            <rect x="282.39" width="82.2" height="32.39" rx="5.67" ry="5.67" fill="#b594c0"/>
            <text transform="translate(290.89 21.88)" font-size="19.36" fill="#fff" font-family="MyriadPro-Regular, Myriad Pro">wind<tspan x="40.45" y="0" letter-spacing="-0.01em">o</tspan><tspan x="50.94" y="0" letter-spacing="0em">w</tspan></text>
          </g>
          <g>
            <text transform="translate(304.59 234.82)" font-size="19.36" fill="#fff" font-family="MyriadPro-Regular, Myriad Pro"><tspan letter-spacing="0em">h</tspan><tspan x="10.67" y="0">tml</tspan></text>
            <rect x="296.09" y="212.94" width="54.8" height="32.39" rx="5.67" ry="5.67" fill="#8fccc0"/>
            <text transform="translate(304.59 234.82)" font-size="19.36" fill="#fff" font-family="MyriadPro-Regular, Myriad Pro"><tspan letter-spacing="0em">h</tspan><tspan x="10.67" y="0">tml</tspan></text>
          </g>
          <g>
            <text transform="translate(85.74 340.16)" font-size="19.36" fill="#fff" font-family="MyriadPro-Regular, Myriad Pro">head</text>
            <rect x="77.23" y="318.28" width="57.71" height="32.39" rx="5.67" ry="5.67" fill="#8fccc0"/>
            <text transform="translate(85.74 340.16)" font-size="19.36" fill="#fff" font-family="MyriadPro-Regular, Myriad Pro">head</text>
          </g>
          <g>
            <text transform="translate(90.28 445.64)" font-size="19.36" fill="#fff" font-family="MyriadPro-Regular, Myriad Pro">title</text>
            <rect x="81.78" y="423.77" width="48.63" height="32.39" rx="5.67" ry="5.67" fill="#8fccc0"/>
            <text transform="translate(90.28 445.64)" font-size="19.36" fill="#fff" font-family="MyriadPro-Regular, Myriad Pro">title</text>
          </g>
          <g>
            <text transform="translate(238.47 445.64)" font-size="19.36" fill="#fff" font-family="MyriadPro-Regular, Myriad Pro">div</text>
            <rect x="229.97" y="423.77" width="41.77" height="32.39" rx="5.67" ry="5.67" fill="#8fccc0"/>
            <text transform="translate(238.47 445.64)" font-size="19.36" fill="#fff" font-family="MyriadPro-Regular, Myriad Pro">div</text>
          </g>
          <g>
            <line x1="605.77" y1="441.14" x2="557.63" y2="441.14" fill="none" stroke="#939598" stroke-miterlimit="10"/>
            <g>
              <text transform="translate(586.77 445.64)" font-size="19.36" fill="#fff" font-family="MyriadPro-Regular, Myriad Pro">class =<tspan x="53.56" y="0" letter-spacing="-0.08em"> </tspan><tspan x="56.06" y="0" letter-spacing="-0.04em">“</tspan><tspan x="62.23" y="0">a</tspan><tspan x="71.57" y="0" letter-spacing="0.02em">r</tspan><tspan x="78.36" y="0">ticl</tspan><tspan x="102.54" y="0" letter-spacing="-0.03em">e</tspan><tspan x="111.76" y="0" letter-spacing="-0.09em">”</tspan></text>
              <rect x="578.27" y="423.77" width="135.18" height="32.39" rx="5.67" ry="5.67" fill="#7391a7"/>
              <text transform="translate(586.77 445.64)" font-size="19.36" fill="#fff" font-family="MyriadPro-Regular, Myriad Pro">class =<tspan x="53.56" y="0" letter-spacing="-0.08em"> </tspan><tspan x="56.06" y="0" letter-spacing="-0.04em">“</tspan><tspan x="62.23" y="0">a</tspan><tspan x="71.57" y="0" letter-spacing="0.02em">r</tspan><tspan x="78.36" y="0">ticl</tspan><tspan x="102.54" y="0" letter-spacing="-0.03em">e</tspan><tspan x="111.76" y="0" letter-spacing="-0.09em">”</tspan></text>
            </g>
          </g>
          <g>
            <line x1="319.77" y1="441.14" x2="271.63" y2="441.14" fill="none" stroke="#939598" stroke-miterlimit="10"/>
            <g>
              <text transform="translate(300.77 445.64)" font-size="19.36" fill="#fff" font-family="MyriadPro-Regular, Myriad Pro">class =<tspan x="53.56" y="0" letter-spacing="-0.08em"> </tspan><tspan x="56.06" y="0" letter-spacing="-0.04em">“</tspan><tspan x="62.23" y="0">a</tspan><tspan x="71.57" y="0" letter-spacing="0.02em">r</tspan><tspan x="78.36" y="0">ticl</tspan><tspan x="102.54" y="0" letter-spacing="-0.03em">e</tspan><tspan x="111.76" y="0" letter-spacing="-0.09em">”</tspan></text>
              <rect x="292.27" y="423.77" width="135.18" height="32.39" rx="5.67" ry="5.67" fill="#7391a7"/>
              <text transform="translate(300.77 445.64)" font-size="19.36" fill="#fff" font-family="MyriadPro-Regular, Myriad Pro">class =<tspan x="53.56" y="0" letter-spacing="-0.08em"> </tspan><tspan x="56.06" y="0" letter-spacing="-0.04em">“</tspan><tspan x="62.23" y="0">a</tspan><tspan x="71.57" y="0" letter-spacing="0.02em">r</tspan><tspan x="78.36" y="0">ticl</tspan><tspan x="102.54" y="0" letter-spacing="-0.03em">e</tspan><tspan x="111.76" y="0" letter-spacing="-0.09em">”</tspan></text>
            </g>
          </g>
          <g>
            <line x1="312.27" y1="546.83" x2="264.13" y2="546.83" fill="none" stroke="#939598" stroke-miterlimit="10"/>
            <g>
              <text transform="translate(293.27 551.33)" font-size="19.36" fill="#fff" font-family="MyriadPro-Regular, Myriad Pro">id=<tspan x="26.99" y="0" letter-spacing="-0.08em"> </tspan><tspan x="29.49" y="0" letter-spacing="-0.02em">“</tspan><tspan x="35.94" y="0" letter-spacing="0em">i</tspan><tspan x="40.47" y="0" letter-spacing="0em">n</tspan><tspan x="51.14" y="0">t</tspan><tspan x="57.55" y="0" letter-spacing="-0.01em">r</tspan><tspan x="63.68" y="0" letter-spacing="-0.03em">o</tspan><tspan x="73.68" y="0" letter-spacing="-0.09em">”</tspan></text>
              <rect x="284.77" y="529.46" width="97.09" height="32.39" rx="5.67" ry="5.67" fill="#7391a7"/>
              <text transform="translate(293.27 551.33)" font-size="19.36" fill="#fff" font-family="MyriadPro-Regular, Myriad Pro">id=<tspan x="26.99" y="0" letter-spacing="-0.08em"> </tspan><tspan x="29.49" y="0" letter-spacing="-0.02em">“</tspan><tspan x="35.94" y="0" letter-spacing="0em">i</tspan><tspan x="40.47" y="0" letter-spacing="0em">n</tspan><tspan x="51.14" y="0">t</tspan><tspan x="57.55" y="0" letter-spacing="-0.01em">r</tspan><tspan x="63.68" y="0" letter-spacing="-0.03em">o</tspan><tspan x="73.68" y="0" letter-spacing="-0.09em">”</tspan></text>
            </g>
          </g>
          <g>
            <text transform="translate(524.53 445.64)" font-size="19.36" fill="#fff" font-family="MyriadPro-Regular, Myriad Pro">div</text>
            <rect x="516.03" y="423.77" width="41.77" height="32.39" rx="5.67" ry="5.67" fill="#8fccc0"/>
            <text transform="translate(524.53 445.64)" font-size="19.36" fill="#fff" font-family="MyriadPro-Regular, Myriad Pro">div</text>
          </g>
          <g>
            <text transform="translate(53.28 551.33)" font-size="19.36" fill="#fff" font-family="MyriadPro-Regular, Myriad Pro"><tspan letter-spacing="-0.01em">L</tspan><tspan x="8.87" y="0">o</tspan><tspan x="19.5" y="0" letter-spacing="-0.01em">r</tspan><tspan x="25.64" y="0" letter-spacing="0em">em ipsum</tspan></text>
            <rect x="44.77" y="529.46" width="122.63" height="32.39" rx="5.67" ry="5.67" fill="#9cd8eb"/>
            <text transform="translate(53.28 551.33)" font-size="19.36" fill="#fff" font-family="MyriadPro-Regular, Myriad Pro"><tspan letter-spacing="-0.01em">L</tspan><tspan x="8.87" y="0">o</tspan><tspan x="19.5" y="0" letter-spacing="-0.01em">r</tspan><tspan x="25.64" y="0" letter-spacing="0em">em ipsum</tspan></text>
          </g>
          <line x1="439.94" y1="551.33" x2="439.94" y2="646.94" fill="none" stroke="#939598" stroke-miterlimit="10"/>
          <g>
            <text transform="translate(434.43 551.33)" font-size="19.36" fill="#fff" font-family="MyriadPro-Regular, Myriad Pro">p</text>
            <rect x="425.93" y="529.46" width="28.03" height="32.39" rx="5.67" ry="5.67" fill="#8fccc0"/>
            <text transform="translate(434.43 551.33)" font-size="19.36" fill="#fff" font-family="MyriadPro-Regular, Myriad Pro">p</text>
          </g>
          <g>
            <text transform="translate(406.13 657.02)" font-size="19.36" fill="#fff" font-family="MyriadPro-Regular, Myriad Pro"><tspan letter-spacing="-0.01em">L</tspan><tspan x="8.87" y="0">o</tspan><tspan x="19.5" y="0" letter-spacing="-0.01em">r</tspan><tspan x="25.64" y="0" letter-spacing="0em">em ...</tspan></text>
            <rect x="397.63" y="635.15" width="84.62" height="32.39" rx="5.67" ry="5.67" fill="#9cd8eb"/>
            <text transform="translate(406.13 657.02)" font-size="19.36" fill="#fff" font-family="MyriadPro-Regular, Myriad Pro"><tspan letter-spacing="-0.01em">L</tspan><tspan x="8.87" y="0">o</tspan><tspan x="19.5" y="0" letter-spacing="-0.01em">r</tspan><tspan x="25.64" y="0" letter-spacing="0em">em ...</tspan></text>
          </g>
          <line x1="250.7" y1="551.33" x2="250.7" y2="646.94" fill="none" stroke="#939598" stroke-miterlimit="10"/>
          <g>
            <text transform="translate(245.19 551.33)" font-size="19.36" fill="#fff" font-family="MyriadPro-Regular, Myriad Pro">p</text>
            <rect x="236.68" y="529.46" width="28.03" height="32.39" rx="5.67" ry="5.67" fill="#8fccc0"/>
            <text transform="translate(245.19 551.33)" font-size="19.36" fill="#fff" font-family="MyriadPro-Regular, Myriad Pro">p</text>
          </g>
          <g>
            <text transform="translate(216.89 657.02)" font-size="19.36" fill="#fff" font-family="MyriadPro-Regular, Myriad Pro"><tspan letter-spacing="-0.01em">L</tspan><tspan x="8.87" y="0">o</tspan><tspan x="19.5" y="0" letter-spacing="-0.01em">r</tspan><tspan x="25.64" y="0" letter-spacing="0em">em ...</tspan></text>
            <rect x="208.38" y="635.15" width="84.62" height="32.39" rx="5.67" ry="5.67" fill="#9cd8eb"/>
            <text transform="translate(216.89 657.02)" font-size="19.36" fill="#fff" font-family="MyriadPro-Regular, Myriad Pro"><tspan letter-spacing="-0.01em">L</tspan><tspan x="8.87" y="0">o</tspan><tspan x="19.5" y="0" letter-spacing="-0.01em">r</tspan><tspan x="25.64" y="0" letter-spacing="0em">em ...</tspan></text>
          </g>
          <line x1="536.92" y1="551.33" x2="536.92" y2="646.94" fill="none" stroke="#939598" stroke-miterlimit="10"/>
          <g>
            <text transform="translate(531.41 551.33)" font-size="19.36" fill="#fff" font-family="MyriadPro-Regular, Myriad Pro">p</text>
            <rect x="522.9" y="529.46" width="28.03" height="32.39" rx="5.67" ry="5.67" fill="#8fccc0"/>
            <text transform="translate(531.41 551.33)" font-size="19.36" fill="#fff" font-family="MyriadPro-Regular, Myriad Pro">p</text>
          </g>
          <g>
            <text transform="translate(503.11 657.02)" font-size="19.36" fill="#fff" font-family="MyriadPro-Regular, Myriad Pro"><tspan letter-spacing="-0.01em">L</tspan><tspan x="8.87" y="0">o</tspan><tspan x="19.5" y="0" letter-spacing="-0.01em">r</tspan><tspan x="25.64" y="0" letter-spacing="0em">em ...</tspan></text>
            <rect x="494.61" y="635.15" width="84.62" height="32.39" rx="5.67" ry="5.67" fill="#9cd8eb"/>
            <text transform="translate(503.11 657.02)" font-size="19.36" fill="#fff" font-family="MyriadPro-Regular, Myriad Pro"><tspan letter-spacing="-0.01em">L</tspan><tspan x="8.87" y="0">o</tspan><tspan x="19.5" y="0" letter-spacing="-0.01em">r</tspan><tspan x="25.64" y="0" letter-spacing="0em">em ...</tspan></text>
          </g>
          <line x1="633.89" y1="551.33" x2="633.89" y2="646.94" fill="none" stroke="#939598" stroke-miterlimit="10"/>
          <g>
            <text transform="translate(628.38 551.33)" font-size="19.36" fill="#fff" font-family="MyriadPro-Regular, Myriad Pro">p</text>
            <rect x="619.88" y="529.46" width="28.03" height="32.39" rx="5.67" ry="5.67" fill="#8fccc0"/>
            <text transform="translate(628.38 551.33)" font-size="19.36" fill="#fff" font-family="MyriadPro-Regular, Myriad Pro">p</text>
          </g>
          <g>
            <text transform="translate(600.08 657.02)" font-size="19.36" fill="#fff" font-family="MyriadPro-Regular, Myriad Pro"><tspan letter-spacing="-0.01em">L</tspan><tspan x="8.87" y="0">o</tspan><tspan x="19.5" y="0" letter-spacing="-0.01em">r</tspan><tspan x="25.64" y="0" letter-spacing="0em">em ...</tspan></text>
            <rect x="591.58" y="635.15" width="84.62" height="32.39" rx="5.67" ry="5.67" fill="#9cd8eb"/>
            <text transform="translate(600.08 657.02)" font-size="19.36" fill="#fff" font-family="MyriadPro-Regular, Myriad Pro"><tspan letter-spacing="-0.01em">L</tspan><tspan x="8.87" y="0">o</tspan><tspan x="19.5" y="0" letter-spacing="-0.01em">r</tspan><tspan x="25.64" y="0" letter-spacing="0em">em ...</tspan></text>
          </g>
          <g>
            <text transform="translate(353.3 340.16)" font-size="19.36" fill="#fff" font-family="MyriadPro-Regular, Myriad Pro">body</text>
            <rect x="344.79" y="318.28" width="58.7" height="32.39" rx="5.67" ry="5.67" fill="#8fccc0"/>
            <text transform="translate(353.3 340.16)" font-size="19.36" fill="#fff" font-family="MyriadPro-Regular, Myriad Pro">body</text>
          </g>
        </g>
      </g>
    </g>
  </g>
</svg>
