<?xml version="1.0" encoding="utf-8"?>
<!-- Generator: Adobe Illustrator 21.1.0, SVG Export Plug-In . SVG Version: 6.00 Build 0)  -->
<svg version="1.1" id="Layer_1" xmlns="http://www.w3.org/2000/svg" xmlns:xlink="http://www.w3.org/1999/xlink" x="0px" y="0px"
	 viewBox="0 0 988 790" style="enable-background:new 0 0 988 790;" xml:space="preserve">
<style type="text/css">
	.st0{display:none;}
	.st1{display:inline;}
	.st2{fill:none;stroke:#D291FF;stroke-width:20;stroke-miterlimit:10;}
	.st3{display:none;fill:none;stroke:#D291FF;stroke-width:2;stroke-miterlimit:10;}
	.st4{fill:#D291FF;}
</style>
<g class="st0">
	<g class="st1">
		<rect x="255.3" y="162.5" class="st2" width="477.5" height="465"/>
	</g>
</g>
<path class="st3" d="M388.7,443.3l-16.4,62c-0.3,1.7-1,2.4-3.1,2.4h-30.5c-2.1,0-2.4-0.7-2.1-3.1l58.9-206.2c1-3.8,1.7-6.7,2.1-17
	c0-1.4,0.7-2.1,1.7-2.1h43.5c1.4,0,2.1,0.3,2.4,2.1l66.1,223.6c0.3,1.7,0,2.7-1.7,2.7h-34.3c-1.7,0-2.7-0.6-3.1-2l-17.1-62.3
	L388.7,443.3L388.7,443.3z M447,409.6c-5.8-23-19.9-73.3-25-97.6h-0.3c-4.5,24.3-15.7,65.4-24.3,97.6L447,409.6z M558.3,430.8
	c0.3,28.1,13.7,46.9,45.2,46.9c12.3,0,22.9-1.6,33.9-6.4c1.4-0.7,2.4-0.3,2.4,1.4v26c0,2.1-0.7,3.1-2.1,4.1
	c-11,5.5-24.6,7.9-41.7,7.9c-54.8,0-75.4-40.4-75.4-85.6c0-49,25.3-89.1,69.9-89.1c45.2,0,61,38,61,68.8c0,9.9-0.7,18.2-1.7,21.9
	c-0.3,1.7-1,2.3-2.7,2.7c-4.1,0.7-16.4,1.4-34.6,1.4L558.3,430.8L558.3,430.8z M600.4,402.3c10.6,0,14.4,0,15.4-0.3
	c0-1.4,0.3-2.5,0.3-3.6c0-11.3-5.5-32.1-27.1-32.1c-19.9,0-28.4,17.5-30.5,36C558.6,402.3,600.4,402.3,600.4,402.3z"/>
<g>
	<g>
		<g>
			<g>
				<polygon class="st4" points="342,629 255.3,628.4 245.8,628.3 245.9,619 249.3,154 249.3,147.9 255.3,148 732.7,151.4 
					735.3,151.5 735.3,154 732.7,502.2 730.2,154 732.7,156.5 255.3,160 261.2,154 264.6,619 255.3,609.6 342,609 				"/>
			</g>
		</g>
	</g>
	<g>
		<g>
			<path class="st4" d="M388.7,434.8c5.8,1.5,1.6,0.4,2.9,0.8l0,0l0,0l0,0.1l-0.1,0.2l-0.1,0.4l-0.2,0.8l-0.4,1.6l-0.8,3.1l-1.7,6.2
				l-3.4,12.5l-6.8,25l-3.4,12.7c-0.1,0.4-0.3,0.9-0.6,1.4c-0.3,0.5-0.8,1-1.3,1.4c-0.5,0.4-1.1,0.6-1.6,0.7
				c-0.5,0.1-0.9,0.2-1.3,0.2c-0.8,0-1.2,0-1.8,0l-1.6,0l-6.5,0l-12.9-0.1l-6.5,0l-1.6,0c-0.2,0-0.6,0-1,0c-0.4,0-0.9-0.1-1.5-0.3
				c-0.6-0.2-1.4-0.8-1.9-1.6c-0.4-0.8-0.5-1.4-0.5-1.8c-0.1-0.9,0-1.5,0.1-2.2l0-0.2l0.1-0.2l39.3-135.3l19.7-67.6
				c0.8-2.8,1.7-5.6,2.1-8.4c0.4-2.8,0.6-5.7,0.8-8.6l0.1-2.2c0.1-0.6-0.1-1.9,0.9-3c0.5-0.5,1.2-0.9,1.8-0.9c0.2,0,0.3,0,0.4,0
				l0.3,0l0.6,0l2.2,0l8.8,0l17.6,0.1l8.8,0l4.4,0l1.1,0c0.4,0,1,0.1,1.5,0.3c0.6,0.3,1,0.8,1.3,1.3c0.2,0.5,0.3,0.9,0.4,1.3l0-0.1
				l65,223.9l0,0c0.1,0.6,0.2,1.3-0.1,1.9c-0.1,0.3-0.4,0.5-0.7,0.6c-0.3,0.1-0.6,0.2-1,0.2c0.3,0,0.7,0,1-0.2
				c0.3-0.1,0.6-0.3,0.7-0.6c0.3-0.6,0.2-1.3,0-1.9l0,0l-67.2-223.2l0,0l0-0.1c-0.1-0.3-0.1-0.6-0.2-0.8c-0.1-0.2-0.1-0.2-0.2-0.3
				c-0.1,0-0.3-0.1-0.6-0.1l-1.1,0l-4.4,0l-8.8,0l-17.6,0.1l-8.8,0l-2.2,0l-0.6,0l-0.3,0c0,0-0.1,0-0.1,0c-0.1,0-0.1,0-0.1,0
				c0,0-0.1,0.1-0.1,0.3c0,0.1,0,0.2,0,0.3l0,0.6l-0.1,2.2c-0.1,3-0.3,5.9-0.7,8.9c-0.2,1.5-0.5,3-0.9,4.5c-0.4,1.5-0.8,2.8-1.2,4.3
				l-19,67.8l-38,135.6l0.1-0.3c-0.1,0.5-0.1,0.9-0.1,1.1c0,0.1,0,0-0.1-0.3c-0.1-0.3-0.5-0.6-0.6-0.6c-0.1,0-0.1,0,0.1,0
				c0.1,0,0.3,0,0.6,0l1.6,0l6.5,0l12.9-0.1l6.5,0l1.6,0c0.5,0,1.2,0,1.4,0c0.3,0,0.5-0.1,0.2,0c-0.1,0.1-0.2,0.2-0.2,0.2
				c0,0,0,0,0-0.1l3.2-12.4l6.5-25.1l3.3-12.5l1.6-6.3l0.8-3.1l0.4-1.6l0.2-0.8l0.1-0.4l0.1-0.2l0-0.1l0,0l0,0
				C387.1,434.4,382.9,433.2,388.7,434.8z"/>
			<path class="st4" d="M444.1,401.8c-3.9-16.3-8.2-32.6-12.2-48.9c-2-8.2-4-16.3-6-24.5c-1.9-8.2-3.8-16.4-5.5-24.7l1.6,1.3l-0.3,0
				l1.6-1.3c-1.7,8.3-3.6,16.4-5.7,24.6c-2.1,8.1-4.2,16.2-6.4,24.3c-4.4,16.2-9,32.3-13.5,48.4l-0.3-0.3l19.1,0.3l-19.1,0.3l-0.3,0
				l0.1-0.3c4.1-16.3,8.2-32.5,12.2-48.8c2-8.1,3.9-16.3,5.7-24.5c1.8-8.2,3.6-16.4,5-24.6l0.2-1.3l1.4,0l0.3,0l1.3,0l0.3,1.3
				c1.9,8.1,4,16.3,6.1,24.4c2.2,8.1,4.4,16.2,6.7,24.3c4.5,16.2,9.1,32.3,13.6,48.6L444.1,401.8z"/>
			<path class="st4" d="M621.1,503c-5.3,1-10.6,1.6-15.9,1.9c-5.3,0.3-10.6,0.3-15.9-0.1c-10.7-0.7-21.4-3.2-31.1-8.1
				c-9.7-4.9-18.1-12.3-24.2-21.2c-6.1-8.9-10.1-19-12.5-29.4c-2.4-10.4-3.3-21-3.1-31.5c0.2-10.6,1.6-21.1,4.4-31.3
				c2.8-10.2,7.1-20.1,13.2-28.8c6.1-8.7,14.1-16.2,23.6-21.2c9.5-5,20.2-7.3,30.8-7.2c5.3,0,10.6,0.6,15.8,1.8
				c5.2,1.2,10.2,3.1,14.9,5.8c4.7,2.6,8.9,5.9,12.6,9.8c3.7,3.9,6.8,8.2,9.3,12.9c1.3,2.3,2.4,4.7,3.4,7.2c1,2.5,1.9,4.9,2.6,7.5
				c1.5,5.1,2.5,10.3,3,15.5c0.6,5.2,0.6,10.5,0.4,15.7c-0.1,2.6-0.2,5.2-0.5,7.8c-0.2,2.6-0.5,5.2-1.1,7.8l-0.2,1
				c-0.1,0.3-0.2,0.7-0.4,1.1c-0.4,0.8-1.2,1.4-1.9,1.6c-0.4,0.1-0.7,0.2-1.1,0.3l-1,0.1c-0.7,0.1-1.3,0.1-2,0.2
				c-2.6,0.2-5.2,0.4-7.8,0.5c-5.2,0.2-10.4,0.3-15.6,0.4c-20.8,0-41.6-0.2-62.4-0.3l0.4-0.4c0.1,6.1,0.7,12.3,2.4,18.3
				c1.7,5.9,4.5,11.6,8.7,16.1c4.2,4.6,9.6,7.9,15.4,9.8c5.9,2,12.1,2.7,18.3,2.8c-6.2,0-12.4-0.7-18.3-2.6
				c-5.9-1.9-11.4-5.2-15.7-9.7c-4.3-4.5-7.2-10.2-9-16.2c-1.8-6-2.5-12.2-2.6-18.4l0-0.4l0.4,0c20.8-0.1,41.6-0.2,62.4-0.4
				c5.2-0.1,10.4-0.2,15.6-0.5c2.6-0.1,5.2-0.3,7.7-0.6c0.6-0.1,1.3-0.1,1.9-0.2l0.9-0.1c0.3-0.1,0.6-0.1,0.8-0.2
				c0.5-0.2,0.8-0.4,1-0.8c0.1-0.2,0.2-0.5,0.2-0.7c0.1-0.3,0.1-0.6,0.2-0.9c0.5-2.5,0.8-5,1-7.6c0.2-2.6,0.3-5.2,0.4-7.7
				c0.1-5.2,0.1-10.3-0.5-15.4c-0.6-5.1-1.6-10.2-3.1-15.1c-0.7-2.5-1.6-4.9-2.6-7.2c-1-2.3-2.1-4.7-3.3-6.9
				c-2.5-4.5-5.5-8.6-9-12.3c-3.5-3.7-7.6-6.8-12-9.2c-4.4-2.4-9.2-4.2-14.2-5.3c-5-1.1-10.1-1.6-15.2-1.6
				c-10.2,0.1-20.4,2.3-29.2,7.2c-8.9,4.8-16.4,12-22.2,20.3c-5.7,8.4-9.8,17.9-12.4,27.8c-2.6,9.9-3.8,20.1-3.9,30.4
				c-0.1,10.2,0.9,20.5,3.3,30.4c2.4,9.9,6.3,19.4,12.1,27.6c5.8,8.2,13.5,14.9,22.4,19.3c8.9,4.4,18.9,6.7,29,7.2
				c1.3,0.1,2.5,0.1,3.8,0.1c1.3,0,2.5,0.1,3.8,0c2.6,0,5.1-0.1,7.7-0.3c5.1-0.3,10.1-0.9,15-1.9L621.1,503z"/>
			<path class="st4" d="M600.4,390.8l7.7,0.2l3.8,0.1l1.8,0l0.8,0l0.3,0l0.1,0c0,0,0,0,0,0l-1.8,2.5c0-1.3,0.3-2.5,0.4-3.2l0-0.2
				c0-0.1,0-0.1,0-0.2l0-0.7c0-0.5,0-0.9,0-1.4c-0.1-1.9-0.3-3.8-0.6-5.6c-0.6-3.7-1.8-7.4-3.6-10.6c-1.8-3.3-4.2-6.2-7.2-8.3
				c-3-2.1-6.6-3.4-10.4-3.8c-3.8-0.5-7.7-0.2-11.4,0.8c-3.7,1.1-7.1,3.1-9.9,5.8c-2.8,2.7-5.1,6-6.9,9.5c-1.8,3.5-3.1,7.3-4,11.2
				c0.7-3.9,1.8-7.8,3.4-11.5c1.6-3.7,3.7-7.2,6.5-10.1c2.8-3,6.3-5.3,10.2-6.7c3.9-1.4,8.1-1.8,12.2-1.6c4.1,0.2,8.3,1.4,12,3.7
				c3.6,2.2,6.6,5.5,8.8,9.1c2.2,3.6,3.7,7.6,4.6,11.7c0.5,2,0.8,4.1,1,6.2c0,0.5,0.1,1.1,0.1,1.6l0,0.8c0,0.1,0,0.3,0,0.5l0,0.5
				c-0.1,1.2-0.3,2-0.2,2.7l0.1,1.9l-1.9,0.6c-0.2,0.1-0.3,0.1-0.5,0.1l-0.4,0.1l-0.6,0.1c-0.4,0-0.7,0.1-1.1,0.1l-2,0.1l-3.9,0.1
				l-7.7,0.2V390.8z"/>
		</g>
	</g>
	<circle class="st4" cx="342" cy="619" r="17"/>
	<circle class="st4" cx="389" cy="434.3" r="6.5"/>
	<circle class="st4" cx="446.9" cy="401" r="6.5"/>
	<circle class="st4" cx="600.1" cy="393.6" r="6.5"/>
	<circle class="st4" cx="620.6" cy="499.9" r="6.5"/>
</g>
</svg>
