<?xml version="1.0" encoding="utf-8"?>
<!-- Generator: Adobe Illustrator 21.1.0, SVG Export Plug-In . SVG Version: 6.00 Build 0)  -->
<svg version="1.1" id="Layer_1" xmlns="http://www.w3.org/2000/svg" xmlns:xlink="http://www.w3.org/1999/xlink" x="0px" y="0px"
	 viewBox="0 0 988 790" style="enable-background:new 0 0 988 790;" xml:space="preserve">
<style type="text/css">
	.st0{fill:none;stroke:#ED7000;stroke-width:6;stroke-miterlimit:10;}
	.st1{fill:none;stroke:#ED7000;stroke-width:16;stroke-miterlimit:10;}
</style>
<g>
	<g>
		<g>
			<polygon class="st0" points="558,301.2 558,216.8 152.5,216.8 152.5,301.2 152.5,573.2 835.5,573.2 835.5,301.2 			"/>
		</g>
	</g>
	<line class="st1" x1="494" y1="264.8" x2="216" y2="264.8"/>
	<path class="st0" d="M454.5,370.2h-218c-10.5,0-19,8.5-19,19v96c0,10.5,8.5,19,19,19h218c10.5,0,19-8.5,19-19v-96
		C473.5,378.7,465,370.2,454.5,370.2z"/>
	<path class="st0" d="M750.5,370.2h-218c-10.5,0-19,8.5-19,19v96c0,10.5,8.5,19,19,19h218c10.5,0,19-8.5,19-19v-96
		C769.5,378.7,761,370.2,750.5,370.2z"/>
	<g>
		<line class="st1" x1="656.5" y1="404.2" x2="616.5" y2="404.2"/>
		<line class="st1" x1="672.5" y1="437.2" x2="610.5" y2="437.2"/>
		<line class="st1" x1="665.5" y1="470.2" x2="619.5" y2="470.2"/>
	</g>
	<g>
		<line class="st1" x1="312.5" y1="452.2" x2="312.5" y2="412.2"/>
		<line class="st1" x1="345.5" y1="468.2" x2="345.5" y2="406.2"/>
		<line class="st1" x1="378.5" y1="461.2" x2="378.5" y2="415.2"/>
	</g>
</g>
</svg>
