<?xml version="1.0" encoding="utf-8"?>
<!-- Generator: Adobe Illustrator 21.1.0, SVG Export Plug-In . SVG Version: 6.00 Build 0)  -->
<svg version="1.1" xmlns="http://www.w3.org/2000/svg" xmlns:xlink="http://www.w3.org/1999/xlink" x="0px" y="0px"
	 viewBox="0 0 987 790" style="enable-background:new 0 0 987 790;" xml:space="preserve">
<style type="text/css">
	.st0{fill:#ED7000;}
	.st1{fill:none;stroke:#ED7000;stroke-width:14;stroke-miterlimit:10;}
	.st2{fill:#ED7000;stroke:#ED7000;stroke-width:14;stroke-miterlimit:10;}
	.st3{fill:none;stroke:#ED7000;stroke-width:19;stroke-miterlimit:10;}
</style>
<g id="Layer_1">
	<g>
		<g>
			<path class="st0" d="M383.9,413c2.8-10.2,46.1-164.2,52-185.3c0.1-1.5,0.1-3,0.2-4.5c0.1-5.6,0.6-6.1,6-6.1c10,0,20,0.2,30-0.1
				c3.9-0.1,5.9,1.2,7,5c6.4,22.3,50.9,172.5,55.2,186.9c0.7,3.7-0.7,5.1-4.5,5c-5.5-0.2-21.7-0.3-24.2-0.1
				c-3.7,0.3-5.2-1.3-6.2-4.7c-3.9-14.6-7.9-29.2-12-43.7c-1.7-6-1.8-6-7.9-6c-14.8,0-29.5,0-44.3,0c-5.8,0-5.9,0.2-7.3,5.8
				c-3.9,14.9-8,29.7-11.7,44.6c-0.8,3.2-2.3,4.1-5.4,4.1C406.3,413.6,388.3,413.3,383.9,413z M473.4,329.3c4.4,0,4.6-0.4,3.6-4.7
				c-6.1-24.1-12.1-48.2-18.2-72.3c-0.2-0.7-0.6-1.5-0.9-2.2c-0.4,0.7-1,1.5-1.2,2.3c-1.9,8-13.7,56-17.9,71.9c-1.1,4.4-0.8,5,3.4,5
				C447.4,329.3,468.2,329.3,473.4,329.3z"/>
			<path class="st0" d="M589.2,269h-25c-2.2,0-3.9,1.8-3.9,3.9v137c0,2.2,1.8,3.9,3.9,3.9h25c2.2,0,3.9-1.8,3.9-3.9v-137
				C593.1,270.7,591.3,269,589.2,269z"/>
			<circle class="st0" cx="576.7" cy="230.7" r="18.9"/>
		</g>
		<rect x="250.6" y="77.7" class="st1" width="59.5" height="59.5"/>
		<rect x="677.6" y="77.7" class="st1" width="59.5" height="59.5"/>
		<rect x="250.6" y="493.8" class="st1" width="59.5" height="59.5"/>
		<rect x="677.6" y="493.8" class="st2" width="59.5" height="59.5"/>
		<rect x="250.6" y="281.5" class="st1" width="59.5" height="59.5"/>
		<rect x="677.6" y="281.5" class="st1" width="59.5" height="59.5"/>
		<rect x="464.1" y="77.7" class="st1" width="59.5" height="59.5"/>
		<rect x="464" y="494.9" class="st1" width="59.5" height="59.5"/>
		<g>
			<path class="st0" d="M869.2,685.6c-8.1,8.1-16.2,16.2-24.3,24.3c-3.3,3.3-5,3.2-8.9-0.8c-3-3-6.1-6-9.1-9.1
				c-3-3.1-3.3-5.3-0.7-7.9c16.6-16.6,33.2-33.2,49.7-49.8c2.5-2.5,4.8-2.3,7.9,0.8c3,2.9,5.9,5.9,8.9,8.9c4.2,4.2,4.4,5.9,1,9.2
				C885.5,669.3,877.3,677.4,869.2,685.6L869.2,685.6z"/>
			<path class="st0" d="M871.9,629.7c-14.5-20.2-23.8-42.4-27.5-67c-0.3-2.3-1.5-3.3-3.3-3.7c-5.8-1.1-11.2-3.4-16.8-5.1
				c-18-5.4-35.9-11.1-54-16.7c-18.3-5.7-36.7-11.4-54.9-17.2c-2.4-0.7-3.5,0.3-4.6,1.8c-1.3,1.6,0.7,2.2,1.5,2.9
				c23.8,23.9,47.6,47.7,71.4,71.6c0.9,0.9,1.6,1.5,2.5,1.9c2.3-1.5,5-2.3,7.9-2.3c8.1,0,14.8,6.6,14.8,14.8
				c0,8.1-6.6,14.8-14.8,14.8c-8.2,0-14.8-6.6-14.8-14.8c0-1.1,0.2-2.1,0.3-3.2c0-0.2,0.1-0.4,0.2-0.7c0.4-1.6,1.1-3.1,2-4.5
				c-0.2-0.9-1.1-1.8-2.3-2.9c-11.9-11.5-23.3-23.2-34.9-34.8c0,0,0,0,0.1-0.1c-12.1-12.1-24.2-24.2-36.4-36.4
				c-1.9-1.9-3.6-1.5-4.7,0.8c-0.6,1.1,0.1,2,0.4,3c3.6,11.5,7.2,22.9,10.7,34.4c5,16.1,10,32.1,15,48.2c4.5,14.3,9,28.6,13.4,43
				c0.7,2.4,2,2.6,4.1,2.9c25.4,4.6,48.8,13.9,69.2,30c1.9,1.5,2.9,1.5,4.7-0.3c16.6-16.7,33.2-33.3,49.8-50
				C875.8,635.3,875.9,635.3,871.9,629.7z"/>
		</g>
		<line class="st3" x1="280.5" y1="137.1" x2="280.5" y2="281.8"/>
		<line class="st3" x1="280.5" y1="341.1" x2="280.5" y2="493.9"/>
		<line class="st3" x1="309.7" y1="524.8" x2="464.1" y2="524.8"/>
		<line class="st3" x1="523.5" y1="524.8" x2="677.9" y2="524.8"/>
		<line class="st3" x1="707.1" y1="493.9" x2="707.1" y2="341.1"/>
		<line class="st3" x1="707.1" y1="281.8" x2="707.1" y2="137.1"/>
		<line class="st3" x1="309.7" y1="107.1" x2="464.1" y2="107.1"/>
		<line class="st3" x1="523.9" y1="107.1" x2="678.3" y2="107.1"/>
	</g>
</g>
<g id="Layer_2">
</g>
</svg>
