<svg id="Layer_5" data-name="Layer 5" xmlns="http://www.w3.org/2000/svg" viewBox="0 0 200 163.14">
  <title>book</title>
  <g>
    <path d="M31.68,149.69q0-8.41,0-16.82c0-2.12,0-2.13-2.16-2.62-5-1.13-10-2.31-15-3.34a9.39,9.39,0,0,1-6.84-5.07A63.72,63.72,0,0,1,.43,98.9a53.42,53.42,0,0,1,4.44-29.5c1.29-2.74,3-5.28,4.54-7.89a10.66,10.66,0,0,1,5-4.24Q42.31,44.64,70.11,31.9c9.09-4.15,18.2-8.27,27.27-12.46a10.48,10.48,0,0,1,7-.71q35.35,7.83,70.71,15.56c6.4,1.41,12.8,2.8,19.18,4.29a7.2,7.2,0,0,1,5.73,7.3,6.48,6.48,0,0,1-3.68,6c-2.16,1.21-4.39,2.3-6.59,3.44q-34.43,17.78-68.86,35.58a9.79,9.79,0,0,1-6.9,1c-14.46-3.06-29-6-43.44-9L29.19,74.53c-2.66-.55-5.34-1-8-1.69a1.84,1.84,0,0,0-2.48,1.08,38.31,38.31,0,0,0-4,21.62,56.9,56.9,0,0,0,4,15.74,3.5,3.5,0,0,0,2.95,2.37c2.75.5,5.45,1.24,8.19,1.82,1.69.36,1.81.26,1.83-1.42,0-3.2,0-6.41.06-9.61a13.29,13.29,0,0,1,5.65-10.63,8.31,8.31,0,0,1,7.21-1.57c11.33,2.42,22.7,4.67,34.06,7,.63.13,1.26.25,1.87.43,3.56,1,4.8,5.58,1.82,7.74-3.75,2.71-4.51,6.23-4.49,10.46.08,19.06,0,38.12,0,57.18a23.1,23.1,0,0,1,0,2.4,4.59,4.59,0,0,1-7.2,3.29,19.41,19.41,0,0,1-2.44-2.3q-6.82-6.94-13.62-13.9c-1.43-1.46-1.45-1.46-3.17-.51-4.06,2.25-8.09,4.54-12.18,6.74a7.21,7.21,0,0,1-2.91.92,4.29,4.29,0,0,1-4.6-4.2c-.1-2.08,0-4.16,0-6.25Q31.68,155.46,31.68,149.69Z" transform="translate(0 -18.43)" fill="#fff"/>
    <path d="M86.88,135.79c0-1.84,0-3.68,0-5.52s.13-2,1.91-1.58q5.27,1.16,10.52,2.36c3.74.85,7.48,1.69,11.21,2.59a4.15,4.15,0,0,0,3.18-.57Q136.35,120.5,159,108L183,94.74c.7-.39,1.4-.78,2.11-1.15a7,7,0,0,1,9.66,2.91c2,3.71,1,7.55-2.68,9.71-3.45,2-7,3.9-10.48,5.84-20.92,11.58-41.86,23.11-62.72,34.78a12.42,12.42,0,0,1-9.63,1.35c-6.75-1.66-13.55-3.07-20.33-4.61-2-.46-2-.49-2-2.48,0-1.76,0-3.52,0-5.28Z" transform="translate(0 -18.43)" fill="#fff"/>
  </g>
</svg>
