<svg id="Layer_3" data-name="Layer 3" xmlns="http://www.w3.org/2000/svg" viewBox="0 0 179.56 200">
  <title>brush</title>
  <path d="M187.31,0c2.76,1.9,2.71,4.66,2.19,7.48a20.67,20.67,0,0,1-3.17,7.5l-22.4,34.54q-34.34,53-68.67,105.92a14.45,14.45,0,0,1-5.08,5,13.59,13.59,0,0,1-5.6,1.51c-1.32.11-1.35.12-1.37,1.45a52,52,0,0,1-2.53,16.12c-1.95,5.72-4.92,10.75-9.76,14.52a28.18,28.18,0,0,1-14,5.57c-.57.08-1.12.24-1.68.36H45.9c-1.66-.26-3.32-.51-5-.78-8.28-1.36-16-4.15-22.55-9.53a32,32,0,0,1-7.84-9.38,5.47,5.47,0,0,1-.31-.86,6.35,6.35,0,0,1,.9.09c2.39.59,4.75,1.36,7.17,1.75a16,16,0,0,0,12-3,39.57,39.57,0,0,0,7.15-6.89c1.62-1.87,3.19-3.78,4.84-5.62A34.49,34.49,0,0,1,60.6,154.92a27.57,27.57,0,0,1,11-.19c1.2.21,1.23.18.86-.87-1.59-4.56-.74-8.65,2.14-12.49Q124.55,74.73,174.42,8.05a23.65,23.65,0,0,1,6.7-6.46c1-.59,2-1.06,3.07-1.59Z" transform="translate(-10.22)" fill="#fff"/>
</svg>
