<svg id="Layer_2" data-name="Layer 2" xmlns="http://www.w3.org/2000/svg" viewBox="0 0 200 120.09">
  <title>code</title>
  <g>
    <path d="M76.32,151.58a10.42,10.42,0,0,1,.49-2.81q16-51.09,31.93-102.19c1.3-4.15,4.35-6.6,8.1-6.63a8.44,8.44,0,0,1,8,5.86,9.81,9.81,0,0,1-.28,6.06q-15.11,48.25-30.19,96.5c-.66,2.1-1.24,4.24-2,6.29a8.28,8.28,0,0,1-16-3.09Z" transform="translate(0 -39.96)" fill="#fff"/>
    <path d="M20.36,100.21l32.19,20.22c4.23,2.66,8.51,5.26,12.68,8a6.77,6.77,0,0,1,2.68,8.16,7,7,0,0,1-7.14,4.49,7.29,7.29,0,0,1-3.47-1.3Q30.58,123,3.87,106.21c-5.22-3.29-5.15-9.33.12-12.46Q30.65,77.93,57.34,62.17c3.81-2.25,8-1.33,10,2.12s.92,7.51-2.91,9.79q-21,12.44-42,24.83C21.84,99.29,21.23,99.68,20.36,100.21Z" transform="translate(0 -39.96)" fill="#fff"/>
    <path d="M179.63,101.81,163.36,91.59q-13.91-8.74-27.83-17.49c-3.92-2.47-5-6.51-2.8-10S139.08,60,143,62.41Q169.42,79,195.84,95.62c5.61,3.54,5.53,9.46-.15,12.83q-26.56,15.74-53.15,31.43c-3.13,1.85-6.13,1.62-8.57-.53a7,7,0,0,1-1.79-7.86,8.23,8.23,0,0,1,3.8-3.84q21-12.38,41.95-24.81Z" transform="translate(0 -39.96)" fill="#fff"/>
  </g>
</svg>
