<svg id="Layer_4" data-name="Layer 4" xmlns="http://www.w3.org/2000/svg" viewBox="0 0 199.68 198">
  <title>hammer</title>
  <path d="M.16,181.51c.89,2.15,2.56,3.67,4.16,5.26,3.36,3.34,6.69,6.72,10.07,10a6.55,6.55,0,0,0,7.68,1.55,9,9,0,0,0,2.79-2q12.39-13,24.7-26l33.66-35.48,31-32.65a22.75,22.75,0,0,0,1.8-2,6.24,6.24,0,0,0,1.18-4.6,2.27,2.27,0,0,1,.75-2.06q16.91-16.85,33.78-33.74a3.7,3.7,0,0,1,.42-.3c.36.3.76.6,1.11.95,1.3,1.27,2.55,2.6,3.88,3.84s2.63,1.51,4.37.47a2.92,2.92,0,0,1,3.75.44c2,1.8,3.84,3.69,5.64,5.65a2.88,2.88,0,0,1,.38,3.75,3.07,3.07,0,0,0,.38,4.22c.29.35.63.66.95,1,2.07,2.07,4.12,4.15,6.21,6.2,1.89,1.85,3.77,1.88,5.61.06q7.05-7,14.05-14.06c.49-.49.92-1,1.38-1.57q0-1.17,0-2.34c-1.31-1.42-2.6-2.87-3.95-4.26s-2.91-3-4.41-4.41-2.64-1.61-4.51-.53a2.76,2.76,0,0,1-3.44-.27c-2.1-1.92-4.13-3.94-6.06-6.05a2.8,2.8,0,0,1-.2-3.6,2.92,2.92,0,0,0-.19-3.91,7.34,7.34,0,0,0-.66-.72C167.63,35.52,159,26.64,150,18a59.44,59.44,0,0,0-29.1-15.7,49.21,49.21,0,0,0-21.44-.26c-.61.14-1.21.36-1.84.55.17,1.17,1,1.24,1.73,1.47a58.06,58.06,0,0,1,11.51,5.2,73.14,73.14,0,0,1,19.7,16.63,43,43,0,0,1,3.69,5.48,12.11,12.11,0,0,1,1.1,3.1,3.45,3.45,0,0,1-.52,2.79c-1.4,2.25-1.26,3.45.6,5.33,1.41,1.43,2.86,2.82,4.39,4.32-.44.48-.76.86-1.12,1.21q-16.39,16.41-32.79,32.81a2.66,2.66,0,0,1-2.52,1,6.23,6.23,0,0,0-5.32,1.87l-5.8,5.49L18.35,159.5c-4.71,4.47-9.41,9-14.15,13.4a15.58,15.58,0,0,0-4,5.1Z" transform="translate(-0.16 -1)" fill="#fff"/>
</svg>
