<svg id="Layer_1" data-name="Layer 1" xmlns="http://www.w3.org/2000/svg" viewBox="0 0 199.58 199">
  <title>magic_wand</title>
  <g>
    <path d="M154.29,73.53c-.06,10.11-2.87,17.27-8.64,23.06q-46.81,46.94-93.77,93.72a30,30,0,0,1-42.68-.51,30.26,30.26,0,0,1,.32-42.93q42-42.2,84.17-84.23c3.18-3.18,6.23-6.52,9.59-9.5,9.73-8.62,20.84-10.77,32.78-5.58S153.76,62.51,154.29,73.53ZM102.51,111c.41-.38.75-.67,1.06-1q13.17-13.17,26.36-26.32c.88-.87,1-1.35,0-2.31-4.07-3.94-8.05-8-12-12-.86-.87-1.38-1-2.36,0q-13.1,13.23-26.33,26.34c-.88.87-1,1.36,0,2.32,4.07,3.94,8,8,12,12A15.17,15.17,0,0,0,102.51,111Z" transform="translate(-0.42)" fill="#fff"/>
    <path d="M64.85,43.76l-.46-.2c.22-.38.41-.77.66-1.12a35,35,0,0,0,6.46-23.15A34.89,34.89,0,0,0,65.2,1.48c-.28-.4-1-.87-.6-1.31s.88.27,1.27.52q20.5,13.14,41,0c.37-.24.67-1,1.26-.47.09.08-.26.75-.48,1.1q-13.44,20.76.17,41.4c.19.28.52.77.43.88-.43.53-.77,0-1.08-.25q-20.82-13.67-41.62,0Z" transform="translate(-0.42)" fill="#fff"/>
    <path d="M199.34,134.2c-9.59-6.51-20-8.7-31.25-5.57a34.28,34.28,0,0,0-10,4.64c-.48.32-1,1.15-1.59.6s.35-1,.64-1.47q12.38-19.94,0-39.84c-.21-.34-1.13-.62-.44-1.16.24-.18,1,.13,1.43.4A35.64,35.64,0,0,0,198,91.63c.43-.28,1.14-.83,1.3-.71.58.45,0,.92-.26,1.35-8.85,13.92-8.48,27.71.57,41.39,0,.07,0,.18,0,.26Z" transform="translate(-0.42)" fill="#fff"/>
    <path d="M199.07,43.84c-.34-.24-.7-.51-1.08-.75q-20-12.94-40.29-.48c-.49.3-1,1.15-1.6.56s.38-1,.67-1.44C165,28.32,165,15,156.51,1.65c-.29-.45-1.12-.78-.6-1.49a4.43,4.43,0,0,1,1.31.63q19.77,12.67,39.85.52c.51-.3,1.11-1.13,1.61-.62s-.34,1.17-.65,1.69q-12,20.13.63,39.86C199.63,43.76,199.66,43.78,199.07,43.84Z" transform="translate(-0.42)" fill="#fff"/>
    <path d="M199.61,133.94c.14.15.41.42.39.44-.34.43-.48.06-.66-.18Z" transform="translate(-0.42)" fill="#fff"/>
  </g>
</svg>
