<?xml version="1.0" encoding="utf-8"?>
<!-- Generator: Adobe Illustrator 21.1.0, SVG Export Plug-In . SVG Version: 6.00 Build 0)  -->
<svg version="1.1" id="DOM" xmlns="http://www.w3.org/2000/svg" xmlns:xlink="http://www.w3.org/1999/xlink" x="0px" y="0px"
	 viewBox="0 0 225 225" style="enable-background:new 0 0 225 225;" xml:space="preserve">
<style type="text/css">
	.st0{fill:none;stroke:#83CEE1;stroke-width:2;stroke-miterlimit:10;stroke-dasharray:5,3;}
	.st1{fill:#83CEE1;}
</style>
<g>
	<g>
		<g>
			<line class="st0" x1="74.3" y1="106.3" x2="74.3" y2="71.7"/>
		</g>
		<g>
			<g>
				<rect x="9.8" y="74.8" class="st1" width="50.8" height="3.9"/>
				<rect x="9.8" y="81.8" class="st1" width="28.3" height="3.9"/>
				<rect x="9.8" y="88.8" class="st1" width="39.5" height="3.9"/>
			</g>
		</g>
		<g>
			<rect x="97.4" y="60.5" class="st1" width="30.2" height="5.2"/>
			<rect x="88.4" y="74.8" class="st1" width="50.8" height="3.9"/>
			<rect x="88.4" y="81.8" class="st1" width="28.3" height="3.9"/>
			<rect x="88.4" y="88.8" class="st1" width="39.6" height="3.9"/>
			<rect x="88.4" y="95.8" class="st1" width="22.7" height="3.9"/>
		</g>
		<g>
			<line class="st0" x1="150.3" y1="106.3" x2="150.3" y2="71.7"/>
		</g>
		<g>
			<rect x="164.4" y="74.8" class="st1" width="50.8" height="3.9"/>
			<rect x="164.4" y="81.8" class="st1" width="39.6" height="3.9"/>
			<rect x="164.4" y="88.8" class="st1" width="22.7" height="3.9"/>
		</g>
	</g>
	<g>
		<g>
			<line class="st0" x1="74.3" y1="169.1" x2="74.3" y2="133.4"/>
		</g>
		<g>
			<rect x="9.8" y="136.6" class="st1" width="50.8" height="3.9"/>
			<rect x="9.8" y="143.6" class="st1" width="28.3" height="3.9"/>
		</g>
		<g>
			<rect x="93.6" y="120.8" class="st1" width="37.7" height="5.2"/>
			<rect x="88.4" y="136.6" class="st1" width="28.3" height="3.9"/>
			<rect x="88.4" y="143.6" class="st1" width="22.7" height="3.9"/>
		</g>
		<g>
			<line class="st0" x1="150.3" y1="169.1" x2="150.3" y2="133.4"/>
		</g>
		<g>
			<rect x="164.4" y="136.6" class="st1" width="28.3" height="3.9"/>
			<rect x="164.4" y="143.6" class="st1" width="22.7" height="3.9"/>
		</g>
	</g>
</g>
</svg>
