<?xml version="1.0" encoding="utf-8"?>
<!-- Generator: Adobe Illustrator 21.1.0, SVG Export Plug-In . SVG Version: 6.00 Build 0)  -->
<svg version="1.1" id="DOM" xmlns="http://www.w3.org/2000/svg" xmlns:xlink="http://www.w3.org/1999/xlink" x="0px" y="0px"
	 viewBox="0 0 225 225" style="enable-background:new 0 0 225 225;" xml:space="preserve">
<style type="text/css">
	.st0{fill:#AAB2BD;}
	.st1{fill:none;stroke:#AAB2BD;stroke-width:3;stroke-miterlimit:10;}
</style>
<g>
	<g>
		<g>
			<path class="st0" d="M93.6,120.8h7.7v5.2h-7.7V120.8z"/>
			<path class="st0" d="M101.1,120.8h7.7v5.2h-7.7V120.8z"/>
			<path class="st0" d="M108.6,120.8h7.7v5.2h-7.7V120.8z"/>
			<path class="st0" d="M116.1,120.8h7.7v5.2h-7.7V120.8z"/>
			<path class="st0" d="M123.6,120.8h7.7v5.2h-7.7V120.8z"/>
		</g>
	</g>
	<g>
		<g>
			<path class="st0" d="M97.4,60.5h7.7v5.2h-7.7V60.5z"/>
			<path class="st0" d="M104.9,60.5h7.7v5.2h-7.7V60.5z"/>
			<path class="st0" d="M112.4,60.5h7.7v5.2h-7.7V60.5z"/>
			<path class="st0" d="M119.9,60.5h7.7v5.2h-7.7V60.5z"/>
		</g>
	</g>
	<g>
		<g>
			<line class="st1" x1="74.3" y1="106.3" x2="74.3" y2="71.7"/>
		</g>
		<g>
			<g>
				<path class="st0" d="M9.8,74.8h5.8v3.9H9.8V74.8z"/>
				<path class="st0" d="M15.4,74.8h5.8v3.9h-5.8V74.8z"/>
				<path class="st0" d="M21,74.8h5.8v3.9H21V74.8z"/>
				<path class="st0" d="M26.6,74.8h5.8v3.9h-5.8V74.8z"/>
				<path class="st0" d="M32.3,74.8h5.8v3.9h-5.8V74.8z"/>
				<path class="st0" d="M37.9,74.8h5.8v3.9h-5.8V74.8z"/>
				<path class="st0" d="M43.5,74.8h5.8v3.9h-5.8V74.8z"/>
				<path class="st0" d="M49.1,74.8h5.8v3.9h-5.8V74.8z"/>
				<path class="st0" d="M54.8,74.8h5.8v3.9h-5.8V74.8z"/>
				<path class="st0" d="M9.8,81.8h5.8v3.9H9.8V81.8z"/>
				<path class="st0" d="M15.4,81.8h5.8v3.9h-5.8V81.8z"/>
				<path class="st0" d="M21,81.8h5.8v3.9H21V81.8z"/>
				<path class="st0" d="M26.6,81.8h5.8v3.9h-5.8V81.8z"/>
				<path class="st0" d="M32.3,81.8h5.8v3.9h-5.8V81.8z"/>
				<path class="st0" d="M9.8,88.8h5.8v3.9H9.8V88.8z"/>
				<path class="st0" d="M15.4,88.8h5.8v3.9h-5.8V88.8z"/>
				<path class="st0" d="M21,88.8h5.8v3.9H21V88.8z"/>
				<path class="st0" d="M26.6,88.8h5.8v3.9h-5.8V88.8z"/>
				<path class="st0" d="M32.3,88.8h5.8v3.9h-5.8V88.8z"/>
				<path class="st0" d="M37.9,88.8h5.8v3.9h-5.8V88.8z"/>
				<path class="st0" d="M43.5,88.8h5.8v3.9h-5.8V88.8z"/>
			</g>
		</g>
		<g>
			<g>
				<path class="st0" d="M88.4,74.8h5.8v3.9h-5.8V74.8z"/>
				<path class="st0" d="M94.1,74.8h5.8v3.9h-5.8V74.8z"/>
				<path class="st0" d="M99.7,74.8h5.8v3.9h-5.8V74.8z"/>
				<path class="st0" d="M105.3,74.8h5.8v3.9h-5.8V74.8z"/>
				<path class="st0" d="M110.9,74.8h5.8v3.9h-5.8V74.8z"/>
				<path class="st0" d="M116.6,74.8h5.8v3.9h-5.8V74.8z"/>
				<path class="st0" d="M122.2,74.8h5.8v3.9h-5.8V74.8z"/>
				<path class="st0" d="M127.8,74.8h5.8v3.9h-5.8V74.8z"/>
				<path class="st0" d="M133.4,74.8h5.8v3.9h-5.8V74.8z"/>
				<path class="st0" d="M88.4,81.8h5.8v3.9h-5.8V81.8z"/>
				<path class="st0" d="M94.1,81.8h5.8v3.9h-5.8V81.8z"/>
				<path class="st0" d="M99.7,81.8h5.8v3.9h-5.8V81.8z"/>
				<path class="st0" d="M105.3,81.8h5.8v3.9h-5.8V81.8z"/>
				<path class="st0" d="M110.9,81.8h5.8v3.9h-5.8V81.8z"/>
				<path class="st0" d="M88.4,88.8h5.8v3.9h-5.8V88.8z"/>
				<path class="st0" d="M94.1,88.8h5.8v3.9h-5.8V88.8z"/>
				<path class="st0" d="M99.7,88.8h5.8v3.9h-5.8V88.8z"/>
				<path class="st0" d="M105.3,88.8h5.8v3.9h-5.8V88.8z"/>
				<path class="st0" d="M110.9,88.8h5.8v3.9h-5.8V88.8z"/>
				<path class="st0" d="M116.6,88.8h5.8v3.9h-5.8V88.8z"/>
				<path class="st0" d="M122.2,88.8h5.8v3.9h-5.8V88.8z"/>
				<path class="st0" d="M88.4,95.8h5.8v3.9h-5.8V95.8z"/>
				<path class="st0" d="M94.1,95.8h5.8v3.9h-5.8V95.8z"/>
				<path class="st0" d="M99.7,95.8h5.8v3.9h-5.8V95.8z"/>
				<path class="st0" d="M105.3,95.8h5.8v3.9h-5.8V95.8z"/>
			</g>
		</g>
		<g>
			<line class="st1" x1="150.3" y1="106.3" x2="150.3" y2="71.7"/>
		</g>
		<g>
			<g>
				<path class="st0" d="M164.4,74.8h5.8v3.9h-5.8V74.8z"/>
				<path class="st0" d="M170.1,74.8h5.8v3.9h-5.8V74.8z"/>
				<path class="st0" d="M175.7,74.8h5.8v3.9h-5.8V74.8z"/>
				<path class="st0" d="M181.3,74.8h5.8v3.9h-5.8V74.8z"/>
				<path class="st0" d="M186.9,74.8h5.8v3.9h-5.8V74.8z"/>
				<path class="st0" d="M192.6,74.8h5.8v3.9h-5.8V74.8z"/>
				<path class="st0" d="M198.2,74.8h5.8v3.9h-5.8V74.8z"/>
				<path class="st0" d="M203.8,74.8h5.8v3.9h-5.8V74.8z"/>
				<path class="st0" d="M209.4,74.8h5.8v3.9h-5.8V74.8z"/>
				<path class="st0" d="M164.4,81.8h5.8v3.9h-5.8V81.8z"/>
				<path class="st0" d="M170.1,81.8h5.8v3.9h-5.8V81.8z"/>
				<path class="st0" d="M175.7,81.8h5.8v3.9h-5.8V81.8z"/>
				<path class="st0" d="M181.3,81.8h5.8v3.9h-5.8V81.8z"/>
				<path class="st0" d="M186.9,81.8h5.8v3.9h-5.8V81.8z"/>
				<path class="st0" d="M192.6,81.8h5.8v3.9h-5.8V81.8z"/>
				<path class="st0" d="M198.2,81.8h5.8v3.9h-5.8V81.8z"/>
				<path class="st0" d="M164.4,88.8h5.8v3.9h-5.8V88.8z"/>
				<path class="st0" d="M170.1,88.8h5.8v3.9h-5.8V88.8z"/>
				<path class="st0" d="M175.7,88.8h5.8v3.9h-5.8V88.8z"/>
				<path class="st0" d="M181.3,88.8h5.8v3.9h-5.8V88.8z"/>
			</g>
		</g>
	</g>
	<g>
		<g>
			<line class="st1" x1="74.3" y1="169.1" x2="74.3" y2="133.4"/>
		</g>
		<g>
			<g>
				<path class="st0" d="M9.8,136.6h5.8v3.9H9.8V136.6z"/>
				<path class="st0" d="M15.4,136.6h5.8v3.9h-5.8V136.6z"/>
				<path class="st0" d="M21,136.6h5.8v3.9H21V136.6z"/>
				<path class="st0" d="M26.6,136.6h5.8v3.9h-5.8V136.6z"/>
				<path class="st0" d="M32.3,136.6h5.8v3.9h-5.8V136.6z"/>
				<path class="st0" d="M37.9,136.6h5.8v3.9h-5.8V136.6z"/>
				<path class="st0" d="M43.5,136.6h5.8v3.9h-5.8V136.6z"/>
				<path class="st0" d="M49.1,136.6h5.8v3.9h-5.8V136.6z"/>
				<path class="st0" d="M54.8,136.6h5.8v3.9h-5.8V136.6z"/>
				<path class="st0" d="M9.8,143.6h5.8v3.9H9.8V143.6z"/>
				<path class="st0" d="M15.4,143.6h5.8v3.9h-5.8V143.6z"/>
				<path class="st0" d="M21,143.6h5.8v3.9H21V143.6z"/>
				<path class="st0" d="M26.6,143.6h5.8v3.9h-5.8V143.6z"/>
				<path class="st0" d="M32.3,143.6h5.8v3.9h-5.8V143.6z"/>
			</g>
		</g>
		<g>
			<g>
				<path class="st0" d="M88.4,136.6h5.8v3.9h-5.8V136.6z"/>
				<path class="st0" d="M94.1,136.6h5.8v3.9h-5.8V136.6z"/>
				<path class="st0" d="M99.7,136.6h5.8v3.9h-5.8V136.6z"/>
				<path class="st0" d="M105.3,136.6h5.8v3.9h-5.8V136.6z"/>
				<path class="st0" d="M110.9,136.6h5.8v3.9h-5.8V136.6z"/>
				<path class="st0" d="M88.4,143.6h5.8v3.9h-5.8V143.6z"/>
				<path class="st0" d="M94.1,143.6h5.8v3.9h-5.8V143.6z"/>
				<path class="st0" d="M99.7,143.6h5.8v3.9h-5.8V143.6z"/>
				<path class="st0" d="M105.3,143.6h5.8v3.9h-5.8V143.6z"/>
			</g>
		</g>
		<g>
			<line class="st1" x1="150.3" y1="169.1" x2="150.3" y2="133.4"/>
		</g>
		<g>
			<g>
				<path class="st0" d="M164.4,136.6h5.8v3.9h-5.8V136.6z"/>
				<path class="st0" d="M170.1,136.6h5.8v3.9h-5.8V136.6z"/>
				<path class="st0" d="M175.7,136.6h5.8v3.9h-5.8V136.6z"/>
				<path class="st0" d="M181.3,136.6h5.8v3.9h-5.8V136.6z"/>
				<path class="st0" d="M186.9,136.6h5.8v3.9h-5.8V136.6z"/>
				<path class="st0" d="M164.4,143.6h5.8v3.9h-5.8V143.6z"/>
				<path class="st0" d="M170.1,143.6h5.8v3.9h-5.8V143.6z"/>
				<path class="st0" d="M175.7,143.6h5.8v3.9h-5.8V143.6z"/>
				<path class="st0" d="M181.3,143.6h5.8v3.9h-5.8V143.6z"/>
			</g>
		</g>
	</g>
</g>
</svg>
