<?xml version="1.0" encoding="utf-8"?>
<!-- Generator: Adobe Illustrator 21.1.0, SVG Export Plug-In . SVG Version: 6.00 Build 0)  -->
<svg version="1.1" id="DOM" xmlns="http://www.w3.org/2000/svg" xmlns:xlink="http://www.w3.org/1999/xlink" x="0px" y="0px"
	 viewBox="0 0 225 225" style="enable-background:new 0 0 225 225;" xml:space="preserve">
<style type="text/css">
	.st0{fill:#83CEE1;}
	.st1{fill:none;stroke:#83CEE1;stroke-width:2;stroke-miterlimit:10;}
</style>
<g>
	<g>
		<path class="st0" d="M94.7,134.5c2.1,0,3.8,1.7,3.8,3.8v20.3c0,2.1-1.7,3.8-3.8,3.8H8.3c-2.1,0-3.8-1.7-3.8-3.8v-20.3
			c0-2.1,1.7-3.8,3.8-3.8H94.7 M94.7,130.5H8.3c-4.3,0-7.8,3.5-7.8,7.8v20.3c0,4.3,3.5,7.8,7.8,7.8h86.3c4.3,0,7.8-3.5,7.8-7.8
			v-20.3C102.5,134,99,130.5,94.7,130.5L94.7,130.5z"/>
	</g>
	<g>
		<path class="st0" d="M216.7,134.5c2.1,0,3.8,1.7,3.8,3.8v20.3c0,2.1-1.7,3.8-3.8,3.8h-86.3c-2.1,0-3.8-1.7-3.8-3.8v-20.3
			c0-2.1,1.7-3.8,3.8-3.8H216.7 M216.7,130.5h-86.3c-4.3,0-7.8,3.5-7.8,7.8v20.3c0,4.3,3.5,7.8,7.8,7.8h86.3c4.3,0,7.8-3.5,7.8-7.8
			v-20.3C224.5,134,221,130.5,216.7,130.5L216.7,130.5z"/>
	</g>
	<g>
		<path class="st0" d="M155.2,62.5c2.1,0,3.8,1.7,3.8,3.8v20.3c0,2.1-1.7,3.8-3.8,3.8H68.8c-2.1,0-3.8-1.7-3.8-3.8V66.3
			c0-2.1,1.7-3.8,3.8-3.8L155.2,62.5 M155.2,58.5H68.8c-4.3,0-7.8,3.5-7.8,7.8v20.3c0,4.3,3.5,7.8,7.8,7.8h86.3
			c4.3,0,7.8-3.5,7.8-7.8V66.3C163,62,159.5,58.5,155.2,58.5L155.2,58.5z"/>
	</g>
	<polyline class="st1" points="173.5,130.5 173.5,112 51.5,112 51.5,130.5 	"/>
	<line class="st1" x1="112" y1="112" x2="112" y2="94.5"/>
</g>
</svg>
